{"title":"Munna Michael 2017 Hindi DvDScr x264 AAC { TaRa }.mkv","magnet":"magnet:?xt=urn:btih:24ce06c0a6f9ab0526d98296e833f9642f148589&dn=Munna+Michael+2017+Hindi+DvDScr+x264+AAC+%7B+TaRa+%7D.mkv&tr=udp%3A%2F%2Ftracker.leechers-paradise.org%3A6969&tr=udp%3A%2F%2Fzer0day.ch%3A1337&tr=udp%3A%2F%2Fopen.demonii.com%3A1337&tr=udp%3A%2F%2Ftracker.coppersurfer.tk%3A6969&tr=udp%3A%2F%2Fexodus.desync.com%3A6969","uploader":"SkTaRa","categoryP":"video","categoryS":"movies","size":"724862169","seeders":"56","leechers":"149","description":"===================================================================\r\nGeneral\r\nComplete name               : Munna Michael 2017 Hindi DvDScr x264 AAC { TaRa }.mkv\r\nFormat                      : Matroska\r\nFormat version              : Version 4 / Version 2\r\nFile size                   : 691 MiB\r\nDuration                    : 2h 17mn\r\nOverall bit rate            : 703 Kbps\r\n===================================================================\r\nVideo\r\nID                          : 1\r\nFormat                      : AVC\r\nFormat/Info                 : Advanced Video Codec\r\nFormat profile              : <a class=\"__cf_email__\" href=\"/cdn-cgi/l/email-protection\" data-cfemail=\"357d5c525d757906\">[email&#xA0;protected]</a><script data-cfhash=\"f9e31\" type=\"text/javascript\">/* <![CDATA[ */!function(t,e,r,n,c,a,p){try{t=document.currentScript||function(){for(t=document.getElementsByTagName('script'),e=t.length;e--;)if(t[e].getAttribute('data-cfhash'))return t[e]}();if(t&&(c=t.previousSibling)){p=t.parentNode;if(a=c.getAttribute('data-cfemail')){for(e='',r='0x'+a.substr(0,2)|0,n=2;a.length-n;n+=2)e+='%'+('0'+('0x'+a.substr(n,2)^r).toString(16)).slice(-2);p.replaceChild(document.createTextNode(decodeURIComponent(e)),c)}p.removeChild(t)}}catch(u){}}()/* ]]> */</script>\r\nFormat settings, CABAC      : Yes\r\nFormat settings, ReFrames   : 3 frames\r\nCodec ID                    : V_MPEG4/ISO/AVC\r\nDuration                    : 2h 17mn\r\nBit rate                    : 512 Kbps\r\nWidth                       : 720 pixels\r\nHeight                      : 304 pixels\r\nDisplay aspect ratio        : 2.35:1\r\nFrame rate mode             : Constant\r\nFrame rate                  : 25.000 fps\r\nColor space                 : YUV\r\nChroma subsampling          : 4:2:0\r\nBit depth                   : 8 bits\r\nScan type                   : Progressive\r\nBits/(Pixel*Frame)          : 0.094\r\nStream size                 : 503 MiB (73%)\r\nTitle                       : .....::::: TaRa :::::....\r\nLanguage                    : Hindi\r\nDefault                     : Yes\r\nForced                      : No\r\n===================================================================\r\nAudio\r\nID                          : 2\r\nFormat                      : AAC\r\nFormat/Info                 : Advanced Audio Codec\r\nFormat profile              : LC\r\nCodec ID                    : A_AAC\r\nDuration                    : 2h 17mn\r\nBit rate                    : 192 Kbps\r\nChannel(s)                  : 2 channels\r\nChannel positions           : Front: L R\r\nSampling rate               : 44.1 KHz\r\nFrame rate                  : 43.066 fps (1024 spf)\r\nCompression mode            : Lossy\r\nStream size                 : 186 MiB (27%)\r\nTitle                       : .....::::: TaRa :::::....\r\nLanguage                    : Hindi\r\nDefault                     : Yes\r\nForced                      : No\r\n=================================================================== <a href=\"\nhttps://www.jiopic.com/image/kodqF\" rel=\"nofollow\" target=\"_NEW\">\nhttps://www.jiopic.com/image/kodqF</a> <a href=\"\nhttps://www.jiopic.com/image/koC9z\" rel=\"nofollow\" target=\"_NEW\">\nhttps://www.jiopic.com/image/koC9z</a> <a href=\"\nhttps://www.jiopic.com/image/koeDD\" rel=\"nofollow\" target=\"_NEW\">\nhttps://www.jiopic.com/image/koeDD</a> <a href=\"\nhttps://www.jiopic.com/image/koTZv\" rel=\"nofollow\" target=\"_NEW\">\nhttps://www.jiopic.com/image/koTZv</a> <a href=\"\nhttps://www.jiopic.com/image/ko4Pt\" rel=\"nofollow\" target=\"_NEW\">\nhttps://www.jiopic.com/image/ko4Pt</a> <a href=\"\nhttps://www.jiopic.com/image/kousf\" rel=\"nofollow\" target=\"_NEW\">\nhttps://www.jiopic.com/image/kousf</a> <a href=\"\nhttps://www.jiopic.com/image/kohy1\" rel=\"nofollow\" target=\"_NEW\">\nhttps://www.jiopic.com/image/kohy1</a> <a href=\"\nhttps://www.jiopic.com/image/koUhj\" rel=\"nofollow\" target=\"_NEW\">\nhttps://www.jiopic.com/image/koUhj</a> <a href=\"\nhttps://www.jiopic.com/image/koyXn\" rel=\"nofollow\" target=\"_NEW\">\nhttps://www.jiopic.com/image/koyXn</a> <a href=\"\nhttps://www.jiopic.com/image/koIEQ\" rel=\"nofollow\" target=\"_NEW\">\nhttps://www.jiopic.com/image/koIEQ</a> <a href=\"\nhttps://www.jiopic.com/image/ko6AN\" rel=\"nofollow\" target=\"_NEW\">\nhttps://www.jiopic.com/image/ko6AN</a> <a href=\"\nhttps://www.jiopic.com/image/koldY\" rel=\"nofollow\" target=\"_NEW\">\nhttps://www.jiopic.com/image/koldY</a> <a href=\"\nhttps://www.jiopic.com/image/kov9G\" rel=\"nofollow\" target=\"_NEW\">\nhttps://www.jiopic.com/image/kov9G</a> <a href=\"\nhttps://www.jiopic.com/image/ko9Db\" rel=\"nofollow\" target=\"_NEW\">\nhttps://www.jiopic.com/image/ko9Db</a> <a href=\"\nhttps://www.jiopic.com/image/koFyP\" rel=\"nofollow\" target=\"_NEW\">\nhttps://www.jiopic.com/image/koFyP</a> <a href=\"\nhttps://www.jiopic.com/image/korzA\" rel=\"nofollow\" target=\"_NEW\">\nhttps://www.jiopic.com/image/korzA</a> <a href=\"\nhttps://www.jiopic.com/image/kob3B\" rel=\"nofollow\" target=\"_NEW\">\nhttps://www.jiopic.com/image/kob3B</a> <a href=\"\nhttps://www.jiopic.com/image/kowEr\" rel=\"nofollow\" target=\"_NEW\">\nhttps://www.jiopic.com/image/kowEr</a> <a href=\"\nhttps://www.jiopic.com/image/k02hR\" rel=\"nofollow\" target=\"_NEW\">\nhttps://www.jiopic.com/image/k02hR</a> <a href=\"\nhttps://www.jiopic.com/image/k0YYL\" rel=\"nofollow\" target=\"_NEW\">\nhttps://www.jiopic.com/image/k0YYL</a> <a href=\"\nhttps://www.jiopic.com/image/k0kA6\" rel=\"nofollow\" target=\"_NEW\">\nhttps://www.jiopic.com/image/k0kA6</a>","last_updated":"2017-07-22T12:03:05.182Z","parsed":{"xt":"urn:btih:24ce06c0a6f9ab0526d98296e833f9642f148589","dn":"Munna Michael 2017 Hindi DvDScr x264 AAC { TaRa }.mkv","tr":["udp://exodus.desync.com:6969","udp://open.demonii.com:1337","udp://tracker.coppersurfer.tk:6969","udp://tracker.leechers-paradise.org:6969","udp://zer0day.ch:1337"],"infoHash":"24ce06c0a6f9ab0526d98296e833f9642f148589","infoHashBuffer":{"type":"Buffer","data":[36,206,6,192,166,249,171,5,38,217,130,150,232,51,249,100,47,20,133,137]},"name":"Munna Michael 2017 Hindi DvDScr x264 AAC { TaRa }.mkv","announce":["udp://exodus.desync.com:6969","udp://open.demonii.com:1337","udp://tracker.coppersurfer.tk:6969","udp://tracker.leechers-paradise.org:6969","udp://zer0day.ch:1337"],"urlList":[]}}